#tb 0: 1/44100
#media_type 0: audio
#codec_id 0: ac3
#sample_rate 0: 44100
#channel_layout_name 0: 5.1(side)
0,       -256,       -256,     1536,     1114, 0x27f51baf
0,       1280,       1280,     1536,     1116, 0x07220f5f
0,       2816,       2816,     1536,     1114, 0xb8f038d0
0,       4352,       4352,     1536,     1114, 0x01d62cf3
0,       5888,       5888,     1536,     1116, 0x08d5114f
0,       7424,       7424,     1536,     1114, 0xa10d26b9
0,       8960,       8960,     1536,     1114, 0x1bfd1960
0,      10496,      10496,     1536,     1114, 0x460e31bc
